<?xml version="1.0" encoding="utf-8"?>
<!-- Generator: Adobe Illustrator 18.0.0, SVG Export Plug-In . SVG Version: 6.00 Build 0)  -->
<!DOCTYPE svg PUBLIC "-//W3C//DTD SVG 1.1//EN" "http://www.w3.org/Graphics/SVG/1.1/DTD/svg11.dtd">
<svg version="1.1" id="Ebene_1" xmlns="http://www.w3.org/2000/svg" xmlns:xlink="http://www.w3.org/1999/xlink" x="0px" y="0px"
	 viewBox="0 0 384 38" enable-background="new 0 0 384 38" xml:space="preserve">
<g>
	<path fill="#272E68" d="M0.7,0.3h30v4.4H18.2v32.5h-5V4.7H0.7V0.3z"/>
	<path fill="#272E68" d="M67.3,18.7c0,1.3-0.1,2.7-0.4,4.2c-0.3,1.5-0.7,2.9-1.2,4.4c-0.6,1.4-1.3,2.8-2.2,4.1
		c-0.9,1.3-2,2.5-3.4,3.5c-1.3,1-2.9,1.8-4.7,2.4c-1.8,0.6-3.8,0.9-6.1,0.9c-2.3,0-4.3-0.3-6.1-0.9c-1.8-0.6-3.3-1.4-4.7-2.4
		c-1.3-1-2.5-2.2-3.4-3.5c-0.9-1.3-1.6-2.7-2.2-4.1c-0.6-1.4-1-2.9-1.2-4.4c-0.3-1.5-0.4-2.9-0.4-4.2c0-1.3,0.1-2.7,0.4-4.2
		c0.3-1.5,0.7-2.9,1.2-4.4c0.6-1.4,1.3-2.8,2.2-4.1c0.9-1.3,2-2.5,3.4-3.5c1.3-1,2.9-1.8,4.7-2.4C45-0.4,47-0.7,49.3-0.7
		c2.3,0,4.3,0.3,6.1,0.9c1.8,0.6,3.3,1.4,4.7,2.4c1.3,1,2.5,2.2,3.4,3.5c0.9,1.3,1.6,2.7,2.2,4.1c0.6,1.4,1,2.9,1.2,4.4
		C67.2,16,67.3,17.4,67.3,18.7z M62.2,18.7c0-2.2-0.3-4.2-0.9-6c-0.6-1.8-1.4-3.4-2.5-4.8c-1.1-1.3-2.5-2.4-4.1-3.1
		c-1.6-0.8-3.4-1.1-5.4-1.1c-2,0-3.8,0.4-5.4,1.1c-1.6,0.8-2.9,1.8-4,3.1c-1.1,1.3-2,2.9-2.5,4.8c-0.6,1.8-0.9,3.8-0.9,6
		s0.3,4.2,0.9,6c0.6,1.8,1.4,3.4,2.5,4.8c1.1,1.3,2.5,2.4,4,3.1c1.6,0.8,3.4,1.1,5.4,1.1c2,0,3.8-0.4,5.4-1.1
		c1.6-0.8,2.9-1.8,4.1-3.1c1.1-1.3,2-2.9,2.5-4.8C61.9,22.9,62.2,20.9,62.2,18.7z"/>
	<path fill="#272E68" d="M97.7,0.3h4.8v36.9h-5.6L78.1,7.4H78v29.8h-4.8V0.3h5.9l18.4,29.8h0.1V0.3z"/>
	<path fill="#9C9B9B" d="M132.6,36.5c-1.9,0.9-3.9,1.3-5.9,1.3c-2.5,0-4.5-0.4-6-1.1c-1.5-0.8-2.7-1.7-3.5-2.7
		c-0.8-1.1-1.4-2.2-1.6-3.3c-0.3-1.1-0.4-2.1-0.4-2.8c0-1.4,0.2-2.7,0.7-3.8c0.5-1.1,1.1-2.1,1.8-3c0.8-0.9,1.7-1.7,2.7-2.4
		c1-0.7,2.1-1.4,3.3-2c-0.5-0.7-1-1.4-1.5-2.1c-0.5-0.7-0.9-1.3-1.3-2c-0.4-0.7-0.7-1.4-0.9-2.1c-0.2-0.7-0.3-1.6-0.3-2.5
		c0-1,0.2-1.9,0.5-2.9c0.4-0.9,0.9-1.7,1.6-2.4c0.7-0.7,1.6-1.3,2.6-1.7s2.2-0.6,3.5-0.6c1.1,0,2.2,0.2,3.3,0.5
		c1.1,0.3,2,0.8,2.9,1.4c0.8,0.6,1.5,1.4,2,2.4c0.5,0.9,0.7,2,0.7,3.3c0,1.1-0.2,2.1-0.6,3.1c-0.4,0.9-0.9,1.8-1.5,2.6
		c-0.7,0.8-1.4,1.5-2.2,2.1c-0.8,0.6-1.7,1.2-2.6,1.7l6.6,8.1c0.7-1.9,1.1-3.8,1.2-5.7h4.2c-0.1,1.1-0.2,2-0.3,2.8
		c-0.1,0.8-0.3,1.5-0.5,2.1c-0.2,0.7-0.4,1.3-0.7,1.9c-0.3,0.6-0.6,1.4-1,2.2l7.1,8.3H141l-3.9-4.6C136,34.3,134.5,35.6,132.6,36.5z
		 M123.8,20.9c-0.8,0.5-1.4,1.1-2,1.7c-0.6,0.7-1,1.4-1.4,2.2c-0.3,0.8-0.5,1.8-0.5,2.9c0,0.9,0.2,1.8,0.6,2.5
		c0.4,0.8,0.9,1.4,1.6,2c0.7,0.5,1.4,1,2.2,1.3c0.8,0.3,1.7,0.5,2.6,0.5c1.7,0,3.2-0.4,4.5-1.2c1.3-0.8,2.4-1.8,3.3-3.2l-8.4-10.1
		C125.4,19.9,124.6,20.4,123.8,20.9z M129.3,13.5c0.6-0.4,1.1-0.9,1.6-1.4c0.5-0.5,0.9-1.1,1.2-1.7c0.3-0.6,0.5-1.3,0.5-2.1
		c0-1.1-0.4-2-1.1-2.7c-0.8-0.8-1.8-1.2-3.1-1.2c-1,0-2,0.3-2.9,1c-0.9,0.6-1.3,1.6-1.3,3c0,0.5,0.1,1.1,0.3,1.6
		c0.2,0.5,0.5,1.1,0.8,1.6c0.3,0.5,0.7,1.1,1.1,1.6c0.4,0.5,0.8,1,1.2,1.5C128.2,14.3,128.7,13.9,129.3,13.5z"/>
	<path fill="#272E68" d="M153.7,7.3V0.5h30.1v6.8h-11v29.9h-8.1V7.3H153.7z"/>
	<path fill="#272E68" d="M215.4,0.5v6.8H196v7.9h17.8v6.3H196v9h19.8v6.8H188V0.5H215.4z"/>
	<path fill="#272E68" d="M244.8,10.3c-0.5-0.8-1.1-1.4-1.8-2c-0.7-0.6-1.5-1-2.4-1.4c-0.9-0.3-1.9-0.5-2.9-0.5
		c-1.8,0-3.4,0.4-4.6,1.1c-1.3,0.7-2.3,1.6-3.1,2.8c-0.8,1.2-1.4,2.5-1.7,4c-0.4,1.5-0.5,3.1-0.5,4.7c0,1.5,0.2,3,0.5,4.5
		c0.4,1.5,0.9,2.8,1.7,3.9c0.8,1.2,1.8,2.1,3.1,2.8c1.3,0.7,2.8,1.1,4.6,1.1c2.5,0,4.4-0.8,5.8-2.3s2.2-3.5,2.5-6h7.8
		c-0.2,2.3-0.7,4.4-1.6,6.2c-0.9,1.8-2,3.4-3.4,4.7c-1.4,1.3-3,2.3-4.9,3c-1.9,0.7-4,1-6.2,1c-2.8,0-5.3-0.5-7.6-1.5
		c-2.2-1-4.1-2.3-5.7-4c-1.5-1.7-2.7-3.7-3.5-6c-0.8-2.3-1.2-4.8-1.2-7.5c0-2.7,0.4-5.3,1.2-7.6c0.8-2.3,2-4.4,3.5-6.1
		c1.5-1.7,3.4-3.1,5.7-4.1c2.2-1,4.8-1.5,7.6-1.5c2,0,3.9,0.3,5.7,0.9c1.8,0.6,3.4,1.4,4.8,2.5c1.4,1.1,2.6,2.5,3.5,4.1
		s1.5,3.5,1.7,5.7h-7.8C245.6,11.9,245.3,11.1,244.8,10.3z"/>
	<path fill="#272E68" d="M267.4,0.5v14.1h14.8V0.5h8.1v36.7h-8.1V21.4h-14.8v15.8h-8.1V0.5H267.4z"/>
	<path fill="#272E68" d="M305.4,0.5l15.3,24.6h0.1V0.5h7.6v36.7h-8.1l-15.3-24.6h-0.1v24.6h-7.6V0.5H305.4z"/>
	<path fill="#272E68" d="M343.5,0.5v36.7h-8.1V0.5H343.5z"/>
	<path fill="#272E68" d="M358.7,0.5v15.2L373,0.5h10.1L368.8,15l15.7,22.2h-10.1l-11-16.5l-4.6,4.7v11.8h-8.1V0.5H358.7z"/>
</g>
</svg>
